<svg width="56" height="40" viewBox="0 0 56 40" fill="none" xmlns="http://www.w3.org/2000/svg">
<path d="M27.9999 3.33337C18.8166 3.33337 11.3333 10.8167 11.3333 20C11.3333 29.1834 18.8166 36.6667 27.9999 36.6667C37.1833 36.6667 44.6666 29.1834 44.6666 20C44.6666 10.8167 37.1833 3.33337 27.9999 3.33337ZM32.6499 20.8834L26.7666 26.7667C26.5166 27.0167 26.1999 27.1334 25.8833 27.1334C25.5666 27.1334 25.2499 27.0167 24.9999 26.7667C24.5166 26.2834 24.5166 25.4834 24.9999 25L29.9999 20L24.9999 15C24.5166 14.5167 24.5166 13.7167 24.9999 13.2334C25.4833 12.75 26.2833 12.75 26.7666 13.2334L32.6499 19.1167C33.1499 19.6 33.1499 20.4 32.6499 20.8834Z" fill="#FED43E"/>
</svg>
