<svg width="40" height="40" viewBox="0 0 40 40" fill="none" xmlns="http://www.w3.org/2000/svg">
<path d="M19.9999 3.33337C10.8166 3.33337 3.33325 10.8167 3.33325 20C3.33325 29.1834 10.8166 36.6667 19.9999 36.6667C29.1833 36.6667 36.6666 29.1834 36.6666 20C36.6666 10.8167 29.1833 3.33337 19.9999 3.33337ZM22.9833 25C23.4666 25.4834 23.4666 26.2834 22.9833 26.7667C22.7333 27.0167 22.4166 27.1334 22.0999 27.1334C21.7833 27.1334 21.4666 27.0167 21.2166 26.7667L15.3333 20.8834C14.8499 20.4 14.8499 19.6 15.3333 19.1167L21.2166 13.2334C21.6999 12.75 22.4999 12.75 22.9833 13.2334C23.4666 13.7167 23.4666 14.5167 22.9833 15L17.9833 20L22.9833 25Z" fill="#FED43E"/>
</svg>
