<svg width="41" height="41" viewBox="0 0 41 41" fill="none" xmlns="http://www.w3.org/2000/svg">
<rect x="0.5" y="0.5" width="40" height="40" rx="20" stroke="#002C55"/>
<path d="M11.3042 23.8951C11.3042 23.8951 11.4462 25.5922 11.4792 26.1273C11.5232 26.845 11.8072 27.6466 12.2812 28.2032C12.9502 28.9922 13.7382 29.2705 14.7902 29.2724C16.0272 29.2744 25.0222 29.2744 26.2592 29.2724C27.3112 29.2705 28.0992 28.9922 28.7682 28.2032C29.2422 27.6466 29.5262 26.845 29.5712 26.1273C29.6032 25.5922 29.7452 23.8951 29.7452 23.8951" stroke="#002C55" stroke-width="1.5" stroke-linecap="round" stroke-linejoin="round"/>
<path d="M16.9961 13.9866V13.6243C16.9961 12.4331 17.9841 11.4683 19.2041 11.4683H21.7861C23.0051 11.4683 23.9941 12.4331 23.9941 13.6243L23.9951 13.9866" stroke="#002C55" stroke-width="1.5" stroke-linecap="round" stroke-linejoin="round"/>
<path d="M20.4951 25.068V23.8045" stroke="#002C55" stroke-width="1.5" stroke-linecap="round" stroke-linejoin="round"/>
<path fill-rule="evenodd" clip-rule="evenodd" d="M11.25 16.9741V20.3595C13.168 21.5947 15.466 22.4598 17.988 22.8026C18.29 21.7275 19.283 20.9395 20.49 20.9395C21.678 20.9395 22.691 21.7275 22.973 22.8123C25.505 22.4696 27.812 21.6045 29.74 20.3595V16.9741C29.74 15.32 28.377 13.9882 26.683 13.9882H14.317C12.623 13.9882 11.25 15.32 11.25 16.9741Z" stroke="#002C55" stroke-width="1.5" stroke-linecap="round" stroke-linejoin="round"/>
</svg>
